Coordinates
version=1
nRows=12
nColumns=34
inDegrees=yes

Units are S.I. units (second, meters, Newtons, ...)
If the header above contains a line with 'inDegrees', this indicates whether rotational values are in degrees (yes) or radians (no).

endheader
time	pelvis_tilt	pelvis_list	pelvis_rotation	pelvis_tx	pelvis_ty	pelvis_tz	hip_flexion_r	hip_adduction_r	hip_rotation_r	knee_angle_r	ankle_angle_r	subtalar_angle_r	mtp_angle_r	hip_flexion_l	hip_adduction_l	hip_rotation_l	knee_angle_l	ankle_angle_l	subtalar_angle_l	mtp_angle_l	lumbar_extension	lumbar_bending	lumbar_rotation	arm_flex_r	arm_add_r	arm_rot_r	elbow_flex_r	pro_sup_r	arm_flex_l	arm_add_l	arm_rot_l	elbow_flex_l	pro_sup_l
      0.00000000	     -2.61313314	     -1.62026672	    -54.06286595	      2.33751016	      0.94762609	      6.74450202	     35.64273640	     12.60651565	     -0.37799214	      9.65318702	     -0.09603380	     10.39225169	      0.00000000	     42.55873361	     20.65847543	     -0.21203556	     25.84492037	    -15.90384970	    -15.61638449	      0.00000000	    -23.15104895	     -3.92622927	     15.54442253	     23.29425863	      7.30503227	     16.09477129	     76.13011621	    119.74817918	     15.53720985	      2.24852246	     37.58244520	     99.95323931	    112.47236340
      0.01666670	     -2.24559017	     -1.96459889	    -53.73451994	      2.33955856	      0.94888651	      6.74489191	     35.70414625	     11.86879576	     -3.55442803	     11.00943495	      1.90318929	     15.20479239	      0.00000000	     41.92696999	     20.89749631	     -0.53214918	     25.91908933	    -15.12548003	    -14.33833512	      0.00000000	    -23.64406983	     -3.75339581	     14.93956346	     23.34112011	      7.28474569	     16.75285974	     75.88314179	    119.74817918	     15.17060288	      2.09686945	     37.66331350	    100.12786830	    114.57901505
      0.03333330	     -2.20747446	     -2.43578607	    -53.40741463	      2.34300631	      0.94960527	      6.74437995	     35.99126314	     11.84351422	     -2.06058425	     12.68418216	      3.69338008	     14.92178742	      0.00000000	     41.22828847	     21.10705912	     -0.10222694	     25.89278585	    -15.03520513	    -14.52653423	      0.00000000	    -23.74896492	     -2.98071950	     14.95436128	     22.90670681	      6.38834992	     17.75721980	     76.24063994	    119.74817918	     14.59770719	      2.76957259	     38.04851961	     99.71248495	    114.79991000
      0.05000000	     -1.76894260	     -2.93132455	    -53.24760616	      2.34226421	      0.95130287	      6.74328514	     36.72612497	     11.86239319	     -2.75645714	     15.44872371	      3.52035810	     12.62502289	      0.00000000	     40.56339834	     21.10160122	     -0.67345943	     25.75899156	    -15.83924136	    -14.60957882	      0.00000000	    -24.40299703	     -2.80046135	     15.92728935	     23.09462035	      4.81822635	     18.67579898	     76.31018305	    119.74817918	     15.33432290	      3.61475343	     37.17487244	     99.30718905	    114.89260701
      0.06666670	     -1.11639482	     -2.94041830	    -53.67319526	      2.34234105	      0.95240600	      6.74325951	     37.87493572	     12.42397221	      0.33289312	     18.27879361	      1.57804202	      6.30057168	      0.00000000	     40.06468471	     21.42860749	     -0.96692955	     25.24637670	    -17.02913721	    -16.06308885	      0.00000000	    -24.65871971	     -3.04267145	     17.28943354	     23.06428503	      3.75585685	     20.20959877	     76.47311472	    119.57611892	     15.58737956	      4.64715818	     36.47945167	     98.30283201	    115.57376151
      0.08333330	     -0.92526792	     -3.60718119	    -53.70327101	      2.34249568	      0.95377780	      6.74344833	     38.74784425	     12.84423718	     -0.24417460	     21.02906969	      0.88156486	      5.27113768	      0.00000000	     39.73171984	     21.11024659	     -1.65551670	     25.96833902	    -17.06733275	    -16.35793868	      0.00000000	    -25.44920097	     -2.56509708	     18.08242139	     23.13624883	      3.71842056	     21.09913975	     76.35742532	    119.60844484	     16.04858239	      5.65298643	     36.03133842	     97.23091661	    115.60334942
      0.10000000	     -0.78443171	     -4.03640381	    -53.29696590	      2.34171624	      0.95546434	      6.74168488	     40.11282371	     13.01507895	     -0.04358401	     23.87966652	     -0.72637271	      4.09809686	      0.00000000	     39.64759828	     20.94999088	     -2.57178186	     26.42143758	    -17.99246013	    -16.12024327	      0.00000000	    -26.15625509	     -1.88257412	     18.63638734	     23.67643418	      2.85551352	     23.32348625	     77.07503404	    119.74817918	     16.95328265	      6.83052782	     35.46739599	     96.04636954	    115.62193088
      0.11666670	     -1.58201978	     -3.87997760	    -52.91517275	      2.33908831	      0.95657325	      6.74118440	     40.96004476	     14.59563693	      4.57056448	     23.27753435	     -5.08051493	     -0.54457256	      0.00000000	     39.94989491	     20.76785396	     -1.36657831	     25.86500990	    -19.54832014	    -17.71053285	      0.00000000	    -25.84918966	     -1.07874056	     18.58834028	     23.88576994	      2.62813752	     25.66975791	     77.62151712	    119.47588757	     17.60007422	      6.92142808	     34.56958029	     95.89332545	    116.02282397
      0.13333330	     -2.23574368	     -4.24545955	    -52.92438439	      2.33747392	      0.95926121	      6.74009949	     41.41100740	     15.40864161	      4.48285927	     23.05968805	     -8.21437241	     -0.80592099	      0.00000000	     39.88239504	     20.01909952	     -0.80599774	     25.63548859	    -20.54255874	    -17.62649600	      0.00000000	    -26.25421509	     -0.48125649	     18.81470402	     23.62457009	      2.36354222	     27.60908384	     77.90214117	    119.42015540	     18.13750025	      7.18693913	     34.01773610	     95.69637878	    116.26634924
      0.15000000	     -2.69346877	     -4.11904171	    -53.23259320	      2.33639313	      0.96095866	      6.73763987	     41.90180201	     15.79506745	      4.10939244	     22.60524886	     -9.88341788	     -0.31650265	      0.00000000	     39.72709256	     19.56675247	     -0.85799582	     24.29471239	    -21.50857609	    -17.11337049	      0.00000000	    -26.24349097	     -0.11460753	     19.05647068	     23.52662989	      2.14869824	     28.86353377	     78.87730153	    119.46531451	     18.35602728	      7.98462548	     33.51783013	     95.89855966	    116.31641336
      0.16666670	     -3.04694125	     -4.42252479	    -53.61037065	      2.33533291	      0.96234236	      6.73602574	     42.55080565	     16.27506033	      2.31571253	     23.04477954	    -12.87207610	     -0.71671547	      0.00000000	     40.12354426	     18.80026956	     -1.93365370	     24.65821764	    -22.80347282	    -17.40329497	      0.00000000	    -26.49811970	      0.32583265	     19.34073741	     23.75896467	      2.04964070	     30.22469588	     79.72079761	    119.41345610	     17.70309657	      9.53865955	     32.95535248	     94.97004689	    116.45592662
      0.18333330	     -3.71763205	     -4.24786953	    -53.61672076	      2.33591045	      0.96273078	      6.73576706	     43.77011611	     16.88570150	      2.41819822	     23.46383650	    -16.97111955	     -3.45553946	      0.00000000	     40.07043867	     18.52954174	     -1.40606949	     23.76185919	    -23.33103345	    -17.63936826	      0.00000000	    -26.00195369	      0.83151426	     19.52346690	     23.10077391	      2.11478990	     30.91670429	     80.74567548	    119.12722480	     16.83873648	     10.93026025	     33.18815729	     94.15883623	    116.86933187
